<?xml version="1.0" encoding="UTF-8"?>
<svg width="700pt" height="700pt" version="1.1" viewBox="0 0 700 700"  xmlns="http://www.w3.org/2000/svg" xmlns:xlink="http://www.w3.org/1999/xlink">
 
 <g>
  <path d="m350 123.76c-108.64 0-203.28 62.16-257.6 156.24 53.762 94.078 148.96 156.24 257.6 156.24s203.28-62.719 257.6-156.24c-54.32-94.078-148.96-156.24-257.6-156.24zm0 273.28c-64.961 0-117.04-52.641-117.04-117.04 0-64.961 52.641-117.04 117.04-117.04 64.961 0 117.04 52.641 117.04 117.04 0 64.961-52.078 117.04-117.04 117.04z"/>
  <path d="m425.6 280c0 41.754-33.848 75.602-75.602 75.602s-75.602-33.848-75.602-75.602 33.848-75.602 75.602-75.602 75.602 33.848 75.602 75.602"/>
  
 </g>
</svg>
